<?xml version="1.0" encoding="utf-8"?>
<svg viewBox="75.697 160.015 270.998 87.77" xmlns="http://www.w3.org/2000/svg">
  <rect x="118.194" y="151.802" width="270.927" height="79.255" style="fill: rgb(207, 0, 0);" transform="matrix(1, -0.000898, 0.000898, 1, -42.633255, 8.56265)"/>
  <path d="M 230.843 210.479 Q 230.138 210.479 229.088 209.636 Q 228.349 209.516 227.824 209.318 Q 227.3 209.12 226.956 208.845 Q 226.474 208.432 226.113 207.744 Q 225.752 207.056 225.752 206.42 Q 225.752 205.938 225.975 205.56 Q 226.491 204.648 227.282 204.648 Q 227.884 204.648 227.988 205.663 Q 228.108 206.609 228.185 207.168 Q 228.263 207.727 228.314 207.899 Q 228.572 208.742 229.192 209.327 Q 229.914 209.481 230.757 209.481 Q 232.614 209.481 234.317 208.776 Q 235.04 208.467 235.728 207.968 Q 236.416 207.469 236.863 206.867 Q 237.31 206.265 237.31 205.697 Q 237.31 204.889 235.882 204.442 L 232.855 203.754 Q 231.926 203.547 231.367 203.023 Q 230.808 202.498 230.808 201.827 Q 230.808 200.795 232.098 199.763 Q 232.752 199.23 233.629 198.86 Q 234.506 198.491 235.478 198.293 Q 236.45 198.095 237.344 198.095 Q 238.617 198.095 239.52 198.491 Q 240.423 198.886 240.647 199.643 Q 240.698 199.815 240.698 200.021 Q 240.698 201.071 239.649 201.483 Q 239.013 201.741 238.566 201.741 Q 238.29 201.741 238.136 201.638 Q 238.101 201.604 238.101 201.552 Q 238.101 201.432 238.583 201.415 Q 238.875 201.397 239.064 201.363 Q 239.254 201.329 239.34 201.294 Q 239.993 200.95 239.993 200.279 Q 239.993 199.935 239.804 199.557 Q 239.271 198.577 237.138 198.577 Q 236.364 198.577 235.538 198.74 Q 234.713 198.903 233.973 199.222 Q 233.234 199.54 232.718 200.021 Q 231.823 200.847 231.823 201.501 Q 231.823 201.999 232.313 202.386 Q 232.804 202.773 233.801 202.963 L 235.831 203.341 Q 237 203.565 237.723 204.003 Q 238.445 204.442 238.445 205.336 Q 238.445 206.127 238.05 206.815 Q 237.654 207.503 236.992 208.045 Q 236.33 208.587 235.487 208.948 Q 233.578 209.791 230.98 209.791 Q 230.654 209.791 230.327 209.774 Q 230 209.757 229.69 209.722 Q 229.931 209.86 230.301 209.997 Q 230.671 210.135 231.152 210.255 Q 231.204 210.273 231.204 210.324 Q 231.204 210.479 230.843 210.479 Z M 228.572 209.155 Q 228.108 208.639 227.85 208.088 Q 227.472 207.228 227.282 205.973 Q 227.145 205.061 226.99 205.061 Q 226.852 205.061 226.62 205.267 Q 226.388 205.474 226.388 206.145 Q 226.388 207.452 227.317 208.415 Q 227.781 208.897 228.572 209.155 Z" transform="matrix(2.565053, 0, 0, 3.86083, -425.699066, -586.748718)" style="fill: rgb(244, 244, 244); stroke: rgb(0, 0, 0); stroke-width: 0.311241px; text-transform: capitalize; white-space: pre;"/>
  <path d="M 239.715 209.034 Q 238.941 209.034 238.941 208.054 Q 238.941 207.675 239.173 207.151 Q 239.405 206.626 239.835 206.041 Q 239.835 206.041 239.526 206.334 Q 239.216 206.626 238.821 207.073 Q 238.752 207.142 238.649 207.142 Q 238.58 207.142 238.58 207.056 Q 238.58 206.97 238.735 206.764 L 241.108 203.977 Q 241.555 203.461 242.089 203.461 Q 242.484 203.461 242.484 203.771 Q 242.484 203.891 242.381 203.995 Q 242.054 204.304 241.581 204.872 Q 241.108 205.439 240.661 206.093 Q 240.214 206.747 239.913 207.34 Q 239.612 207.933 239.612 208.295 Q 239.612 208.604 239.818 208.604 Q 239.939 208.604 240.197 208.51 Q 240.455 208.415 240.885 208.114 Q 241.315 207.813 241.917 207.177 Q 242.02 207.073 242.467 206.557 Q 242.914 206.041 243.671 205.078 Q 245.013 203.41 245.425 203.41 Q 245.993 203.41 246.045 203.874 Q 246.079 204.029 245.322 204.889 Q 244.342 206.076 243.981 206.592 Q 243.31 207.572 243.31 208.123 Q 243.31 208.501 243.568 208.501 Q 243.826 208.501 244.23 208.252 Q 244.634 208.002 245.081 207.615 Q 245.529 207.228 245.95 206.807 Q 246.371 206.385 246.681 206.024 Q 246.784 205.904 246.887 205.904 Q 246.991 205.904 246.991 206.007 Q 246.991 206.041 246.973 206.11 Q 246.956 206.179 246.87 206.265 Q 246.595 206.575 246.165 207.03 Q 245.735 207.486 245.236 207.933 Q 244.737 208.381 244.273 208.673 Q 243.809 208.965 243.482 208.965 Q 243.086 208.965 242.794 208.75 Q 242.501 208.535 242.501 208.157 Q 242.501 207.779 242.622 207.392 Q 242.742 207.005 242.811 206.729 Q 242.003 207.675 241.392 208.174 Q 240.781 208.673 240.369 208.854 Q 239.956 209.034 239.715 209.034 Z" transform="matrix(2.565053, 0, 0, 3.86083, -425.699066, -586.748718)" style="fill: rgb(244, 244, 244); stroke: rgb(0, 0, 0); stroke-width: 0.311241px; text-transform: capitalize; white-space: pre;"/>
  <path d="M 247.367 208.931 Q 246.955 208.931 246.542 208.639 Q 246.129 208.346 246.077 207.951 Q 245.905 206.626 247.746 204.803 Q 249.569 202.98 251.031 202.98 Q 251.427 202.98 251.65 203.169 Q 251.771 203.289 251.831 203.496 Q 251.891 203.702 251.925 203.702 Q 251.994 203.702 252.046 203.676 Q 252.097 203.651 252.166 203.651 Q 252.373 203.651 252.527 203.805 Q 252.682 203.96 252.699 204.081 Q 252.717 204.115 251.599 205.783 Q 250.481 207.417 250.584 208.002 Q 250.67 208.398 250.962 208.398 Q 251.857 208.398 254.23 205.439 Q 254.282 205.371 254.333 205.371 Q 254.419 205.371 254.419 205.491 Q 254.419 205.629 254.265 205.835 Q 252.08 208.776 250.911 208.776 Q 250.756 208.776 250.618 208.725 Q 249.861 208.432 249.861 207.589 Q 249.861 207.297 249.93 207.005 L 248.864 208.037 Q 248.382 208.518 247.995 208.725 Q 247.608 208.931 247.367 208.931 Z M 247.213 208.553 Q 248.21 208.553 249.93 206.368 L 251.753 203.857 Q 251.616 203.616 251.306 203.616 Q 250.257 203.616 248.468 205.302 Q 246.611 207.022 246.8 208.14 Q 246.886 208.553 247.213 208.553 Z" transform="matrix(2.565053, 0, 0, 3.86083, -425.699066, -586.748718)" style="fill: rgb(244, 244, 244); stroke: rgb(0, 0, 0); stroke-width: 0.311241px; text-transform: capitalize; white-space: pre;"/>
  <path d="M 272.957 209.997 Q 272.648 209.997 272.545 209.843 Q 272.235 209.395 272.235 208.759 Q 272.235 207.28 273.817 204.511 Q 274.832 202.773 276.948 199.832 Q 276.053 200.572 275.004 201.535 Q 273.955 202.498 272.751 203.668 Q 271.186 205.199 270.197 206.36 Q 269.208 207.521 268.778 208.277 Q 268.331 209.086 267.694 209.086 Q 267.402 209.086 267.402 208.879 Q 267.402 208.811 267.453 208.742 Q 267.746 208.277 268.21 207.512 Q 268.675 206.747 269.311 205.68 Q 271.169 202.447 271.977 200.537 Q 272.269 199.815 272.269 199.488 Q 272.269 199.213 272.08 199.213 Q 271.822 199.213 271.272 199.677 Q 269.363 201.277 266.989 204.132 Q 265.991 205.319 265.243 206.325 Q 264.495 207.331 263.979 208.14 Q 263.566 208.776 263.566 209.051 Q 263.566 209.155 263.644 209.198 Q 263.721 209.241 263.721 209.241 Q 263.721 209.258 263.411 209.499 Q 263.136 209.636 262.792 209.636 Q 262.087 209.636 262.19 209.309 Q 262.431 208.535 263.79 206.506 Q 265.561 203.874 266.095 202.911 Q 267.247 200.83 267.247 199.591 Q 267.247 198.731 266.8 198.37 Q 266.353 198.009 265.441 198.009 Q 263.429 198.009 261.279 199.746 Q 260.35 200.503 259.541 201.458 Q 258.733 202.412 258.234 203.444 Q 257.735 204.476 257.735 205.474 Q 257.735 207.263 259.421 207.263 Q 261.399 207.263 262.483 205.835 Q 262.895 205.267 262.895 204.769 Q 262.895 204.476 262.723 204.373 Q 262.706 204.356 262.706 204.321 Q 262.706 204.253 262.809 204.253 Q 263.257 204.253 263.257 204.837 Q 263.257 205.199 262.947 205.749 Q 262.551 206.437 261.76 206.919 Q 260.763 207.538 259.559 207.538 Q 258.389 207.538 257.684 206.798 Q 256.979 206.059 256.979 204.855 Q 256.979 202.137 260.522 199.299 Q 261.175 198.783 262.078 198.413 Q 262.981 198.043 263.945 197.846 Q 264.908 197.648 265.716 197.648 Q 266.886 197.648 267.496 198.035 Q 268.107 198.422 268.107 199.385 Q 268.107 200.589 267.127 202.636 Q 266.817 203.272 265.733 204.958 L 267.058 203.272 Q 267.557 202.619 268.399 201.724 Q 269.242 200.83 270.395 199.695 Q 270.893 199.213 271.53 198.869 Q 272.166 198.525 272.613 198.525 Q 273.233 198.525 273.233 199.179 Q 273.233 199.746 272.768 200.727 Q 272.149 202.034 271.22 203.771 Q 270.928 204.304 270.825 204.683 Q 270.721 205.061 270.687 205.113 Q 270.756 205.027 271.022 204.708 Q 271.289 204.39 271.771 203.84 Q 272.355 203.186 273.164 202.404 Q 273.972 201.621 275.021 200.727 L 277.773 198.456 Q 278.1 198.181 278.358 198.181 Q 278.599 198.181 278.711 198.465 Q 278.823 198.749 278.943 199.196 Q 279.029 199.488 278.117 200.417 Q 275.967 202.619 274.402 205.336 Q 272.975 207.847 272.975 208.965 Q 272.975 209.464 273.301 209.464 Q 273.508 209.464 274.333 209.103 Q 275.056 208.776 275.279 208.725 Q 275.365 208.759 275.365 208.811 Q 275.365 209.069 274.454 209.533 Q 273.559 209.997 272.957 209.997 Z" transform="matrix(2.565053, 0, 0, 3.86083, -425.699066, -586.748718)" style="fill: rgb(244, 244, 244); stroke: rgb(0, 0, 0); stroke-width: 0.311241px; text-transform: capitalize; white-space: pre;"/>
  <path d="M 277.113 209.069 Q 276.562 209.069 276.115 208.716 Q 275.668 208.363 275.668 207.779 Q 275.668 206.557 277.164 204.992 Q 278.695 203.41 279.899 203.41 Q 280.295 203.41 280.544 203.625 Q 280.793 203.84 280.793 204.149 Q 280.793 205.113 279.263 206.041 Q 277.904 206.867 276.975 206.867 Q 276.837 206.867 276.734 206.833 Q 276.476 207.297 276.476 207.813 Q 276.476 208.707 277.319 208.707 Q 278.179 208.707 279.538 207.555 Q 280.587 206.712 281.327 205.766 Q 281.481 205.56 281.602 205.56 Q 281.705 205.56 281.705 205.663 Q 281.705 205.766 281.567 205.955 Q 281.086 206.592 280.535 207.125 Q 279.985 207.658 279.349 208.105 Q 278.024 209.069 277.113 209.069 Z M 277.216 206.489 Q 277.869 206.489 278.919 205.835 Q 279.263 205.594 279.598 205.293 Q 279.933 204.992 280.148 204.683 Q 280.363 204.373 280.363 204.132 Q 280.363 203.909 280.002 203.909 Q 279.486 203.909 278.557 204.683 Q 278.11 205.061 277.697 205.508 Q 277.285 205.955 276.992 206.454 Q 277.095 206.489 277.216 206.489 Z" transform="matrix(2.565053, 0, 0, 3.86083, -425.699066, -586.748718)" style="fill: rgb(244, 244, 244); stroke: rgb(0, 0, 0); stroke-width: 0.311241px; text-transform: capitalize; white-space: pre;"/>
  <path d="M 282.633 208.879 Q 281.824 208.879 281.437 208.346 Q 281.05 207.813 280.81 206.867 Q 280.5 207.177 280.38 207.177 Q 280.294 207.177 280.294 207.039 Q 280.294 206.936 280.38 206.85 Q 280.38 206.85 280.818 206.317 Q 281.257 205.783 282.306 204.82 L 284.473 202.791 Q 284.92 202.361 285.187 202.137 Q 285.454 201.913 285.574 201.913 Q 286.124 201.913 286.124 202.326 Q 286.124 202.533 285.901 202.808 Q 285.729 203.014 285.651 203.126 Q 285.574 203.238 285.557 203.255 Q 285.247 203.788 284.989 205.164 Q 284.8 206.179 284.662 206.833 Q 284.525 207.486 284.439 207.779 Q 285.161 207.761 285.866 207.331 Q 286.572 206.901 287.38 205.921 Q 287.414 205.887 287.483 205.818 Q 287.552 205.749 287.621 205.749 Q 287.724 205.749 287.724 205.835 Q 287.724 205.921 287.672 206.007 Q 287.621 206.093 287.569 206.162 Q 287.036 206.798 286.572 207.202 Q 286.107 207.607 285.591 207.839 Q 285.075 208.071 284.37 208.226 L 283.82 208.587 Q 283.596 208.742 283.286 208.811 Q 282.977 208.879 282.633 208.879 Z M 282.839 208.002 Q 283.235 208.002 283.493 207.813 Q 283.682 207.71 283.863 207.237 Q 284.043 206.764 284.215 206.059 Q 284.353 205.457 284.43 204.88 Q 284.508 204.304 284.576 203.771 L 284.645 203.186 Q 284.25 203.479 283.648 204.029 Q 283.046 204.579 282.461 205.181 Q 281.876 205.783 281.704 206.067 Q 281.532 206.351 281.515 206.489 Q 281.446 207.177 281.85 207.589 Q 282.254 208.002 282.839 208.002 Z" transform="matrix(2.565053, 0, 0, 3.86083, -425.699066, -586.748718)" style="fill: rgb(244, 244, 244); stroke: rgb(0, 0, 0); stroke-width: 0.311241px; text-transform: capitalize; white-space: pre;"/>
  <path d="M 287.981 208.931 Q 287.568 208.931 287.156 208.639 Q 286.743 208.346 286.691 207.951 Q 286.519 206.626 288.36 204.803 Q 290.183 202.98 291.645 202.98 Q 292.04 202.98 292.264 203.169 Q 292.384 203.289 292.445 203.496 Q 292.505 203.702 292.539 203.702 Q 292.608 203.702 292.66 203.676 Q 292.711 203.651 292.78 203.651 Q 292.986 203.651 293.141 203.805 Q 293.296 203.96 293.313 204.081 Q 293.33 204.115 292.212 205.783 Q 291.094 207.417 291.198 208.002 Q 291.284 208.398 291.576 208.398 Q 292.47 208.398 294.844 205.439 Q 294.896 205.371 294.947 205.371 Q 295.033 205.371 295.033 205.491 Q 295.033 205.629 294.878 205.835 Q 292.694 208.776 291.524 208.776 Q 291.37 208.776 291.232 208.725 Q 290.475 208.432 290.475 207.589 Q 290.475 207.297 290.544 207.005 L 289.478 208.037 Q 288.996 208.518 288.609 208.725 Q 288.222 208.931 287.981 208.931 Z M 287.826 208.553 Q 288.824 208.553 290.544 206.368 L 292.367 203.857 Q 292.23 203.616 291.92 203.616 Q 290.871 203.616 289.082 205.302 Q 287.224 207.022 287.414 208.14 Q 287.5 208.553 287.826 208.553 Z" transform="matrix(2.565053, 0, 0, 3.86083, -425.699066, -586.748718)" style="fill: rgb(244, 244, 244); stroke: rgb(0, 0, 0); stroke-width: 0.311241px; text-transform: capitalize; white-space: pre;"/>
  <g transform="matrix(4.146191, 0, 0, 3.25894, 60.574936, 160.217026)" style="">
    <path d="M18 3C18.5128 3 18.9355 3.38604 18.9933 3.88338L19 4V20C19 20.5523 18.5523 21 18 21C17.4872 21 17.0645 20.614 17.0067 20.1166L17 20V15H16C15.4872 15 15.0645 14.614 15.0067 14.1166L15 14V8C15 5.79086 16.5 3 18 3ZM12 3C12.5128 3 12.9355 3.38604 12.9933 3.88338L13 4V9C13 10.8636 11.7256 12.4295 10.0008 12.8738L10 20C10 20.5523 9.55228 21 9 21C8.48716 21 8.06449 20.614 8.00673 20.1166L8 20L8.00024 12.874C6.33879 12.4465 5.09505 10.9784 5.0052 9.20584L5 9V4C5 3.44772 5.44772 3 6 3C6.51284 3 6.93551 3.38604 6.99327 3.88338L7 4V9C7 9.74025 7.40217 10.3866 7.99993 10.7324L8 4C8 3.44772 8.44772 3 9 3C9.51284 3 9.93551 3.38604 9.99327 3.88338L10 4L10.0011 10.7318C10.5523 10.4125 10.937 9.83745 10.993 9.16897L11 9V4C11 3.44772 11.4477 3 12 3Z" style="stroke: rgb(0, 0, 0); stroke-width: 0.270083px; fill: rgb(255, 200, 0);"/>
  </g>
</svg>