<?xml version="1.0" encoding="utf-8"?>
<svg viewBox="108.497 128.077 227.898 228.472" xmlns="http://www.w3.org/2000/svg">
  <ellipse style="stroke: rgba(0, 0, 0, 0); fill: rgb(182, 0, 0);" cx="225.893" cy="242.538" rx="93.33" ry="95.006"/>
  <ellipse style="stroke: rgb(0, 0, 0); fill: rgba(216, 216, 216, 0.01); stroke-width: 2px;" cx="226.177" cy="242.824" rx="96.442" ry="97.59"/>
  <g transform="matrix(4.262469, 0, 0, 4.0981, 170.784927, 161.500198)" style="">
    <path d="M18 3C18.5128 3 18.9355 3.38604 18.9933 3.88338L19 4V20C19 20.5523 18.5523 21 18 21C17.4872 21 17.0645 20.614 17.0067 20.1166L17 20V15H16C15.4872 15 15.0645 14.614 15.0067 14.1166L15 14V8C15 5.79086 16.5 3 18 3ZM12 3C12.5128 3 12.9355 3.38604 12.9933 3.88338L13 4V9C13 10.8636 11.7256 12.4295 10.0008 12.8738L10 20C10 20.5523 9.55228 21 9 21C8.48716 21 8.06449 20.614 8.00673 20.1166L8 20L8.00024 12.874C6.33879 12.4465 5.09505 10.9784 5.0052 9.20584L5 9V4C5 3.44772 5.44772 3 6 3C6.51284 3 6.93551 3.38604 6.99327 3.88338L7 4V9C7 9.74025 7.40217 10.3866 7.99993 10.7324L8 4C8 3.44772 8.44772 3 9 3C9.51284 3 9.93551 3.38604 9.99327 3.88338L10 4L10.0011 10.7318C10.5523 10.4125 10.937 9.83745 10.993 9.16897L11 9V4C11 3.44772 11.4477 3 12 3Z" style="fill: rgb(255, 251, 251);"/>
  </g>
  <path d="M 188.189 275.352 Q 187.529 275.352 186.547 274.564 Q 185.854 274.451 185.363 274.266 Q 184.872 274.081 184.55 273.823 Q 184.1 273.437 183.761 272.793 Q 183.423 272.149 183.423 271.553 Q 183.423 271.102 183.633 270.748 Q 184.116 269.895 184.856 269.895 Q 185.42 269.895 185.516 270.844 Q 185.629 271.73 185.701 272.253 Q 185.774 272.776 185.822 272.937 Q 186.064 273.726 186.643 274.274 Q 187.32 274.419 188.108 274.419 Q 189.847 274.419 191.441 273.759 Q 192.117 273.469 192.761 273.002 Q 193.405 272.535 193.824 271.971 Q 194.243 271.408 194.243 270.877 Q 194.243 270.12 192.906 269.701 L 190.073 269.057 Q 189.203 268.864 188.68 268.373 Q 188.157 267.882 188.157 267.254 Q 188.157 266.288 189.364 265.322 Q 189.976 264.823 190.797 264.477 Q 191.618 264.131 192.528 263.946 Q 193.438 263.76 194.275 263.76 Q 195.466 263.76 196.311 264.131 Q 197.157 264.501 197.366 265.209 Q 197.414 265.37 197.414 265.564 Q 197.414 266.546 196.432 266.932 Q 195.836 267.174 195.418 267.174 Q 195.16 267.174 195.015 267.077 Q 194.983 267.045 194.983 266.997 Q 194.983 266.884 195.434 266.868 Q 195.708 266.852 195.885 266.819 Q 196.062 266.787 196.142 266.755 Q 196.754 266.433 196.754 265.805 Q 196.754 265.483 196.577 265.129 Q 196.078 264.211 194.082 264.211 Q 193.357 264.211 192.584 264.364 Q 191.811 264.517 191.119 264.815 Q 190.427 265.113 189.944 265.564 Q 189.107 266.336 189.107 266.948 Q 189.107 267.415 189.565 267.777 Q 190.024 268.14 190.958 268.317 L 192.858 268.671 Q 193.953 268.88 194.629 269.291 Q 195.305 269.701 195.305 270.539 Q 195.305 271.279 194.935 271.923 Q 194.565 272.567 193.945 273.074 Q 193.325 273.581 192.536 273.92 Q 190.749 274.708 188.318 274.708 Q 188.012 274.708 187.706 274.692 Q 187.4 274.676 187.11 274.644 Q 187.336 274.773 187.682 274.902 Q 188.028 275.03 188.479 275.143 Q 188.527 275.159 188.527 275.208 Q 188.527 275.352 188.189 275.352 Z M 186.064 274.113 Q 185.629 273.63 185.388 273.115 Q 185.033 272.31 184.856 271.134 Q 184.727 270.281 184.583 270.281 Q 184.454 270.281 184.236 270.474 Q 184.019 270.667 184.019 271.295 Q 184.019 272.519 184.888 273.42 Q 185.323 273.871 186.064 274.113 Z" transform="matrix(2.138132, 0, 0, 2.691081, -236.245972, -447.634949)" style="fill: rgb(255, 246, 246); white-space: pre;"/>
  <path d="M 196.489 274 Q 195.765 274 195.765 273.082 Q 195.765 272.728 195.982 272.237 Q 196.199 271.746 196.602 271.199 Q 196.602 271.199 196.312 271.472 Q 196.022 271.746 195.652 272.165 Q 195.588 272.229 195.491 272.229 Q 195.427 272.229 195.427 272.149 Q 195.427 272.068 195.572 271.875 L 197.793 269.267 Q 198.212 268.784 198.711 268.784 Q 199.081 268.784 199.081 269.073 Q 199.081 269.186 198.985 269.283 Q 198.679 269.573 198.236 270.104 Q 197.793 270.635 197.375 271.247 Q 196.956 271.859 196.674 272.414 Q 196.393 272.97 196.393 273.308 Q 196.393 273.598 196.586 273.598 Q 196.699 273.598 196.94 273.509 Q 197.182 273.42 197.584 273.139 Q 197.987 272.857 198.55 272.261 Q 198.647 272.165 199.065 271.682 Q 199.484 271.199 200.192 270.297 Q 201.448 268.735 201.834 268.735 Q 202.366 268.735 202.414 269.17 Q 202.446 269.315 201.738 270.12 Q 200.82 271.231 200.482 271.714 Q 199.854 272.632 199.854 273.147 Q 199.854 273.501 200.096 273.501 Q 200.337 273.501 200.715 273.268 Q 201.094 273.034 201.512 272.672 Q 201.931 272.31 202.325 271.915 Q 202.72 271.521 203.01 271.183 Q 203.106 271.07 203.203 271.07 Q 203.3 271.07 203.3 271.166 Q 203.3 271.199 203.283 271.263 Q 203.267 271.327 203.187 271.408 Q 202.929 271.698 202.527 272.124 Q 202.124 272.551 201.657 272.97 Q 201.19 273.388 200.756 273.662 Q 200.321 273.936 200.015 273.936 Q 199.645 273.936 199.371 273.734 Q 199.097 273.533 199.097 273.179 Q 199.097 272.825 199.21 272.463 Q 199.323 272.1 199.387 271.843 Q 198.631 272.728 198.059 273.195 Q 197.487 273.662 197.101 273.831 Q 196.715 274 196.489 274 Z" transform="matrix(2.138132, 0, 0, 2.691081, -236.245972, -447.634949)" style="fill: rgb(255, 246, 246); white-space: pre;"/>
  <path d="M 203.652 273.903 Q 203.266 273.903 202.879 273.63 Q 202.493 273.356 202.444 272.986 Q 202.283 271.746 204.006 270.039 Q 205.713 268.333 207.081 268.333 Q 207.452 268.333 207.661 268.51 Q 207.774 268.623 207.83 268.816 Q 207.886 269.009 207.918 269.009 Q 207.983 269.009 208.031 268.985 Q 208.079 268.961 208.144 268.961 Q 208.337 268.961 208.482 269.106 Q 208.627 269.251 208.643 269.363 Q 208.659 269.395 207.613 270.957 Q 206.566 272.487 206.663 273.034 Q 206.743 273.404 207.017 273.404 Q 207.854 273.404 210.076 270.635 Q 210.124 270.571 210.172 270.571 Q 210.253 270.571 210.253 270.683 Q 210.253 270.812 210.108 271.005 Q 208.063 273.759 206.969 273.759 Q 206.824 273.759 206.695 273.71 Q 205.986 273.437 205.986 272.648 Q 205.986 272.374 206.051 272.1 L 205.053 273.066 Q 204.602 273.517 204.24 273.71 Q 203.877 273.903 203.652 273.903 Z M 203.507 273.549 Q 204.441 273.549 206.051 271.505 L 207.757 269.154 Q 207.629 268.929 207.339 268.929 Q 206.357 268.929 204.682 270.506 Q 202.944 272.116 203.121 273.163 Q 203.201 273.549 203.507 273.549 Z" transform="matrix(2.138132, 0, 0, 2.691081, -236.245972, -447.634949)" style="fill: rgb(255, 246, 246); white-space: pre;"/>
  <path d="M 227.599 274.902 Q 227.309 274.902 227.212 274.757 Q 226.923 274.338 226.923 273.742 Q 226.923 272.358 228.404 269.766 Q 229.354 268.14 231.334 265.387 Q 230.497 266.079 229.515 266.98 Q 228.533 267.882 227.406 268.977 Q 225.94 270.41 225.015 271.497 Q 224.089 272.583 223.686 273.292 Q 223.268 274.048 222.672 274.048 Q 222.398 274.048 222.398 273.855 Q 222.398 273.791 222.447 273.726 Q 222.72 273.292 223.155 272.575 Q 223.59 271.859 224.186 270.861 Q 225.924 267.834 226.681 266.047 Q 226.955 265.37 226.955 265.065 Q 226.955 264.807 226.778 264.807 Q 226.536 264.807 226.021 265.242 Q 224.234 266.739 222.012 269.412 Q 221.078 270.522 220.378 271.464 Q 219.678 272.406 219.195 273.163 Q 218.808 273.759 218.808 274.016 Q 218.808 274.113 218.881 274.153 Q 218.953 274.193 218.953 274.193 Q 218.953 274.209 218.663 274.435 Q 218.406 274.564 218.084 274.564 Q 217.424 274.564 217.52 274.258 Q 217.746 273.533 219.017 271.633 Q 220.676 269.17 221.175 268.268 Q 222.254 266.32 222.254 265.161 Q 222.254 264.356 221.835 264.018 Q 221.416 263.68 220.563 263.68 Q 218.679 263.68 216.667 265.306 Q 215.797 266.014 215.041 266.908 Q 214.284 267.802 213.817 268.768 Q 213.35 269.734 213.35 270.667 Q 213.35 272.342 214.928 272.342 Q 216.78 272.342 217.794 271.005 Q 218.18 270.474 218.18 270.007 Q 218.18 269.734 218.019 269.637 Q 218.003 269.621 218.003 269.589 Q 218.003 269.524 218.1 269.524 Q 218.518 269.524 218.518 270.072 Q 218.518 270.41 218.229 270.925 Q 217.858 271.569 217.118 272.02 Q 216.184 272.599 215.057 272.599 Q 213.962 272.599 213.302 271.907 Q 212.642 271.215 212.642 270.088 Q 212.642 267.544 215.958 264.887 Q 216.57 264.404 217.415 264.058 Q 218.261 263.712 219.162 263.527 Q 220.064 263.342 220.821 263.342 Q 221.915 263.342 222.487 263.704 Q 223.059 264.066 223.059 264.968 Q 223.059 266.095 222.141 268.011 Q 221.851 268.607 220.837 270.184 L 222.076 268.607 Q 222.543 267.995 223.332 267.158 Q 224.121 266.32 225.2 265.258 Q 225.667 264.807 226.262 264.485 Q 226.858 264.163 227.277 264.163 Q 227.856 264.163 227.856 264.775 Q 227.856 265.306 227.422 266.224 Q 226.842 267.447 225.973 269.073 Q 225.699 269.573 225.602 269.927 Q 225.506 270.281 225.474 270.329 Q 225.538 270.249 225.787 269.951 Q 226.037 269.653 226.488 269.138 Q 227.035 268.526 227.792 267.794 Q 228.549 267.061 229.531 266.224 L 232.107 264.099 Q 232.413 263.841 232.654 263.841 Q 232.88 263.841 232.984 264.107 Q 233.089 264.372 233.202 264.791 Q 233.282 265.065 232.429 265.934 Q 230.416 267.995 228.951 270.539 Q 227.615 272.889 227.615 273.936 Q 227.615 274.403 227.921 274.403 Q 228.114 274.403 228.887 274.064 Q 229.563 273.759 229.772 273.71 Q 229.853 273.742 229.853 273.791 Q 229.853 274.032 228.999 274.467 Q 228.162 274.902 227.599 274.902 Z" transform="matrix(2.138132, 0, 0, 2.691081, -236.245972, -447.634949)" style="fill: rgb(255, 246, 246); white-space: pre;"/>
  <path d="M 231.49 274.032 Q 230.975 274.032 230.556 273.702 Q 230.138 273.372 230.138 272.825 Q 230.138 271.682 231.538 270.217 Q 232.971 268.735 234.098 268.735 Q 234.469 268.735 234.702 268.937 Q 234.935 269.138 234.935 269.428 Q 234.935 270.329 233.503 271.199 Q 232.231 271.971 231.361 271.971 Q 231.232 271.971 231.136 271.939 Q 230.894 272.374 230.894 272.857 Q 230.894 273.694 231.683 273.694 Q 232.488 273.694 233.76 272.615 Q 234.742 271.827 235.435 270.941 Q 235.579 270.748 235.692 270.748 Q 235.789 270.748 235.789 270.844 Q 235.789 270.941 235.66 271.118 Q 235.209 271.714 234.694 272.213 Q 234.179 272.712 233.583 273.131 Q 232.343 274.032 231.49 274.032 Z M 231.587 271.617 Q 232.198 271.617 233.181 271.005 Q 233.503 270.78 233.817 270.498 Q 234.13 270.217 234.332 269.927 Q 234.533 269.637 234.533 269.412 Q 234.533 269.202 234.195 269.202 Q 233.712 269.202 232.842 269.927 Q 232.424 270.281 232.037 270.7 Q 231.651 271.118 231.377 271.585 Q 231.474 271.617 231.587 271.617 Z" transform="matrix(2.138132, 0, 0, 2.691081, -236.245972, -447.634949)" style="fill: rgb(255, 246, 246); white-space: pre;"/>
  <path d="M 236.654 273.855 Q 235.898 273.855 235.536 273.356 Q 235.173 272.857 234.948 271.971 Q 234.658 272.261 234.545 272.261 Q 234.465 272.261 234.465 272.132 Q 234.465 272.036 234.545 271.955 Q 234.545 271.955 234.956 271.456 Q 235.366 270.957 236.349 270.056 L 238.377 268.156 Q 238.796 267.753 239.045 267.544 Q 239.295 267.335 239.408 267.335 Q 239.923 267.335 239.923 267.721 Q 239.923 267.914 239.713 268.172 Q 239.552 268.365 239.48 268.47 Q 239.408 268.574 239.391 268.59 Q 239.102 269.09 238.86 270.378 Q 238.683 271.327 238.554 271.939 Q 238.425 272.551 238.345 272.825 Q 239.021 272.809 239.681 272.406 Q 240.341 272.004 241.098 271.086 Q 241.13 271.054 241.195 270.989 Q 241.259 270.925 241.323 270.925 Q 241.42 270.925 241.42 271.005 Q 241.42 271.086 241.372 271.166 Q 241.323 271.247 241.275 271.311 Q 240.776 271.907 240.341 272.285 Q 239.907 272.664 239.424 272.881 Q 238.941 273.098 238.281 273.243 L 237.765 273.581 Q 237.556 273.726 237.266 273.791 Q 236.976 273.855 236.654 273.855 Z M 236.848 273.034 Q 237.218 273.034 237.459 272.857 Q 237.637 272.76 237.806 272.318 Q 237.975 271.875 238.136 271.215 Q 238.264 270.651 238.337 270.112 Q 238.409 269.573 238.474 269.073 L 238.538 268.526 Q 238.168 268.8 237.604 269.315 Q 237.041 269.83 236.493 270.394 Q 235.946 270.957 235.785 271.223 Q 235.624 271.488 235.608 271.617 Q 235.544 272.261 235.922 272.648 Q 236.3 273.034 236.848 273.034 Z" transform="matrix(2.138132, 0, 0, 2.691081, -236.245972, -447.634949)" style="fill: rgb(255, 246, 246); white-space: pre;"/>
  <path d="M 241.662 273.903 Q 241.275 273.903 240.889 273.63 Q 240.502 273.356 240.454 272.986 Q 240.293 271.746 242.016 270.039 Q 243.722 268.333 245.091 268.333 Q 245.461 268.333 245.67 268.51 Q 245.783 268.623 245.84 268.816 Q 245.896 269.009 245.928 269.009 Q 245.992 269.009 246.041 268.985 Q 246.089 268.961 246.153 268.961 Q 246.347 268.961 246.492 269.106 Q 246.636 269.251 246.653 269.363 Q 246.669 269.395 245.622 270.957 Q 244.576 272.487 244.672 273.034 Q 244.753 273.404 245.026 273.404 Q 245.864 273.404 248.085 270.635 Q 248.134 270.571 248.182 270.571 Q 248.263 270.571 248.263 270.683 Q 248.263 270.812 248.118 271.005 Q 246.073 273.759 244.978 273.759 Q 244.833 273.759 244.704 273.71 Q 243.996 273.437 243.996 272.648 Q 243.996 272.374 244.06 272.1 L 243.062 273.066 Q 242.611 273.517 242.249 273.71 Q 241.887 273.903 241.662 273.903 Z M 241.517 273.549 Q 242.45 273.549 244.06 271.505 L 245.767 269.154 Q 245.638 268.929 245.348 268.929 Q 244.366 268.929 242.692 270.506 Q 240.953 272.116 241.13 273.163 Q 241.211 273.549 241.517 273.549 Z" transform="matrix(2.138132, 0, 0, 2.691081, -236.245972, -447.634949)" style="fill: rgb(255, 246, 246); white-space: pre;"/>
  <ellipse style="fill: none;" cx="222.446" cy="242.313" rx="113.949" ry="114.236"/>
</svg>